<?xml version="1.0" encoding="utf-8"?>
<!-- Generator: Adobe Illustrator 19.0.0, SVG Export Plug-In . SVG Version: 6.00 Build 0)  -->
<svg version="1.1" xmlns="http://www.w3.org/2000/svg" xmlns:xlink="http://www.w3.org/1999/xlink" x="0px" y="0px"
	 viewBox="0 0 272.53 191.49" style="enable-background:new 0 0 272.53 191.49;" xml:space="preserve">
<style type="text/css">
	.st0{display:none;}
	.st1{display:inline;}
	.st2{fill:#6D6D6D;}
	.st3{fill:#DDDDDD;}
	.st4{fill:#6A6A6A;}
	.st5{fill:#626262;}
	.st6{fill:#686868;}
	.st7{fill:#FEFEFE;}
	.st8{fill:#606060;}
	.st9{fill:none;stroke:url(#XMLID_122_);stroke-width:3;stroke-miterlimit:10;}
	.st10{fill:none;stroke:url(#XMLID_123_);stroke-width:3;stroke-miterlimit:10;}
	.st11{fill:none;stroke:url(#XMLID_124_);stroke-width:3;stroke-miterlimit:10;}
	.st12{fill:none;stroke:url(#XMLID_125_);stroke-width:3;stroke-miterlimit:10;}
	.st13{fill:none;stroke:url(#XMLID_126_);stroke-width:3;stroke-miterlimit:10;}
	.st14{fill:none;stroke:url(#XMLID_127_);stroke-width:3;stroke-miterlimit:10;}
	.st15{fill:none;stroke:url(#XMLID_128_);stroke-width:3;stroke-miterlimit:10;}
	.st16{fill:none;stroke:url(#XMLID_129_);stroke-width:3;stroke-miterlimit:10;}
</style>
<g id="Layer_1" class="st0">
	<g id="XMLID_1_" class="st1">
		<path id="XMLID_141_" class="st2" d="M-426.21,65.39c-2.02-4.35-2.39-8.94-2.23-13.66c0.12-3.41,1.63-4.12,4.45-2.67
			c1.31,0.67,2.5,1.58,3.74,2.38c3.54,2.29,6.47,6.11,10.93,0.3c1.99-2.6,6.86-3.23,10.71-3.29c3.25-0.05,4.36-1.37,4.55-4.43
			c0.17-2.64,0.71-5.29,2.1-7.65c2.18-3.7,5.55-4,7.8-0.35c2,3.24,4,6.69,4.92,10.32c1.24,4.93,4.54,7.98,8.02,10.99
			c2.25,1.95,4.06,3.91,3.65,7.13c1.9,3.98,1.66,8.39,2.47,12.58c0.71,0.76,1.3,1.62,0.82,2.66c-1.59,3.43,0.34,5.52,2.61,7.71
			c7.99,7.71,15.97,15.26,21.4,25.35c3.05,5.66,5.95,11.18,5.98,17.44c0.04,8.24,2.22,16.43,1.83,24.38
			c-0.54,10.93-0.87,22.4-6.98,32.37c-0.83,1.36-1.72,2.85-1.21,5.16c3.38-2.2,6.83-4,9.74-6.44c7.76-6.5,16.91-9.17,26.64-8.87
			c3.89,0.12,8.05,0.65,12.07,1.42c4.21,0.81,8.6,0.15,12.84-0.8c2.06,0.43,3.84-0.62,5.64-1.26c3.54-1.25,5.74-0.42,6.32,3.5
			c-1.08,6.88-6.67,9.64-11.77,12.84c-4.87,2.18-10.09,1.66-15.2,2.09c-8.8,0.74-16.75,2.96-24.39,8.47
			c-5.82,4.2-10.7,9.74-17.03,12.99c-7.47,3.84-15.53,4.75-23.44,0.59c-5.65-2.97-10.34-7.26-15.29-11.18
			c-3.4-2.69-6.92-5.16-10.79-7.16c-8.37-4.33-16.55-4.29-24.73,0.53c-2.24,1.32-4.37,3.2-7.33,2.57c-3.02-3.99-3-9.15-5.17-13.48
			c-2.13-5.63,1.16-9.61,4.47-13.25c3.17-3.49,5.48-7.03,4.63-11.95c-0.52-3.02,1.89-4.79,3.06-7.08c3.34-2.77,7.31-4.69,11.48-4.89
			c4.44-0.22,7.31-2.26,9.92-5.32c3.07-1.79,5.87-3.87,7.39-7.24c1.8-3.65,2.36-7.14-0.27-10.8c-2.96-4.12-7.5-4.34-10.59-0.24
			c-0.92,1.22-1.34,2.67-1.83,4.08c-1.5,4.28-4.38,6.49-9.06,6.22c-3.61-0.21-7.32,0.69-10.72-1.39c-0.84-0.51-1.94-0.12-2.93,0.09
			c-10.56,2.24-21.2,3.91-32.05,3.66c-8.08-0.18-14.6-5.55-15.95-13.04c-0.9-5,1.82-8.96,6.79-9.68c4.59-0.66,9.17-1.64,13.69,0.72
			c2.11,1.1,4.28-0.02,6.17-1.07c7.86-4.34,14.57-10.54,22.85-14.24c1.92-0.86,1.93-2.77,2.06-4.71c0.39-5.7,0.2-11.39,5.62-15.71
			c3.16-2.52,3.79-7.31,4.84-11.31c0.8-3.05-0.89-4.41-3.96-3.57c-2.44,0.67-4.39,2.37-6.64,3.42
			C-419.52,73.41-425.36,70.98-426.21,65.39z"/>
		<path id="XMLID_140_" class="st3" d="M-420.5,187.36c2.47,4.36,4.48,8.83,3.13,14.04c-2.8,0.3-4.89,1.41-6.26,4.15
			c-1.46,2.93-4.29,4.82-7.19,5.97c-8.22,3.24-16.68,6.01-25.63,5.69c-5-0.18-10.34,1.04-14.87-2.75c-1.81-1.52-3.36,0.7-4.72,1.73
			c-7.84,5.94-17.99,7.07-25.7,4.34c-11.69-4.14-22.2-12.08-24.54-26.3c-0.79-4.78-1.41-9.57-1.04-14.41
			c0.63-8.43-1.82-16.51-2.68-24.76c-0.28-2.67-1.43-5.12-2.88-7.4c-0.54-0.84-1.15-1.66-1.55-2.56c-1.87-4.29-4.03-8.75-0.89-13.17
			c1.81-2.55,9.53-1.34,13.84,2.21c6.87,5.65,9.73,13.38,10.08,22.03c0.55,13.57,6.51,25.6,10.54,38.17
			c0.29,0.92,0.94,1.79,1.61,2.5c1.33,1.42,2.53,3.67,4.79,2.95c2.78-0.88,1.05-3.4,1.16-5.21c0.86-13.7,0.88-27.37,2.7-41.12
			c1.32-9.96,5.12-18.69,7.73-27.94c1.97-7,6.56-13.08,10.99-18.88c3.01-3.95,4.72-7.97,4.47-12.84
			c-0.42-8.16,2.81-14.93,8.01-20.87c2.31-2.64,3.41-5.66,4-8.98c0.87-4.85,3.05-9.13,5.78-13.17c1.76-2.6,3.71-2.67,5.58-0.21
			c1.6,2.12,3.82,4.2,4.35,6.61c1.7,7.73,6.82,9.02,13.46,8.2c7.25,5.4,7.43,5.41,15.48,0.72c0.14-0.08,0.28-0.19,0.43-0.26
			c3.09-1.52,6.51-4.29,9.65-1.59c3.03,2.61,0.67,6.28-0.47,9.29c-1.92,5.05-3.37,10.11-8.01,14.05c-2.41,2.04-2.8,7.46-1.03,10.98
			c1.42,2.82,0.81,4.2-1.45,5.11c-10.31,4.16-18.86,11.04-27.74,17.43c-2.13,1.53-4.33,0.46-6.04-0.76
			c-4.6-3.29-9.42-1.51-13.95-0.49c-4.1,0.92-4.22,7.42-1.11,11.47c6.04,7.85,14.28,6.9,22.28,5.65c8.42-1.32,17.09-1.57,25.17-4.79
			c0.59-0.24,1.25-0.31,1.87-0.46c0.57,5.93,4.82,2.04,7.33,2.88c4.88,1.63,6.35-1.33,7.36-4.84c1.31-4.55,3.54-7.7,8.7-8.3
			c6.45-0.75,10.39,2.63,10.44,9.29c0.02,3.07-0.75,5.93-1.9,8.72c-1.22,4.21-5.52,5.17-8.23,7.81c-3.36,4.91-8.18,6.71-13.92,6.55
			c-2.93-0.08-4.56,3.45-7.7,2.8c-3.15,0.94-5.75,2.97-8.65,4.38c-1.76,0.86-2.73,2.4-2.25,4.5c1.2,5.24,0.17,10.17-2.28,14.81
			C-423.84,183.34-423.63,185.65-420.5,187.36z"/>
		<path id="XMLID_109_" class="st4" d="M-268.37,180.4c-0.31-3.55-2.34-4.23-5.42-3.33c-1.82,0.53-3.63,1.6-5.57,0.35
			c1.87-0.68,3.75-1.32,5.6-2.03c2.13-0.82,3.98-1.08,5.87,0.85c2.05,2.09,1.88,4.03,0.55,6.24
			C-268.16,182.02-267.65,180.9-268.37,180.4z"/>
		<path id="XMLID_108_" class="st5" d="M-268.37,180.4c0.34,0.69,0.68,1.39,1.03,2.08c-2.35,5.21-6.3,8.55-11.83,10.03
			c0.63-0.72,1.13-1.69,1.92-2.13C-273.11,188.06-269.6,185.26-268.37,180.4z"/>
		<path id="XMLID_107_" class="st6" d="M-365.09,77.05c-2.2-3.92-1.5-8.42-2.47-12.58C-364.68,68.26-364.26,72.53-365.09,77.05z"/>
		<path id="XMLID_106_" class="st7" d="M-420.5,187.36c-7.39-0.15-7.86-1.03-4.27-7.65c2.35-4.34,3.56-8.78,1.81-13.78
			c-1.18-3.38-0.48-6.2,3.67-7.2c3.39-0.81,6.22-4.25,10.22-2.09c-0.68,2.74-2.29,4.72-1.09,8.5c1.03,3.27-2.72,8.15-6.12,11.27
			C-419.5,179.37-421.47,182.79-420.5,187.36z"/>
		<path id="XMLID_105_" class="st8" d="M-387.44,147.29c1.75-3.65,6.23-4.42,8.23-7.81C-379.78,144.37-383.77,145.66-387.44,147.29z
			"/>
	</g>
</g>
<g id="Layer_2">
	<g id="XMLID_2_">
		<linearGradient id="XMLID_122_" gradientUnits="userSpaceOnUse" x1="-342.2769" y1="106.7671" x2="-342.2769" y2="106.7671">
			<stop  offset="0" style="stop-color:#ED1971"/>
			<stop  offset="0.052" style="stop-color:#DD2F78"/>
			<stop  offset="0.2089" style="stop-color:#B34C8C"/>
			<stop  offset="0.3427" style="stop-color:#92599C"/>
			<stop  offset="0.4467" style="stop-color:#7C5FA5"/>
			<stop  offset="0.5081" style="stop-color:#7361AA"/>
			<stop  offset="0.5647" style="stop-color:#6D77B8"/>
			<stop  offset="0.6333" style="stop-color:#638DC8"/>
			<stop  offset="0.7036" style="stop-color:#58A1D6"/>
			<stop  offset="0.7747" style="stop-color:#4EB0E1"/>
			<stop  offset="0.8469" style="stop-color:#44BAE9"/>
			<stop  offset="0.921" style="stop-color:#3CC1ED"/>
			<stop  offset="1" style="stop-color:#38C4F0"/>
		</linearGradient>
		<path id="XMLID_11_" class="st9" d="M-342.28,106.77"/>
		<linearGradient id="XMLID_123_" gradientUnits="userSpaceOnUse" x1="-355.2664" y1="97.0248" x2="-191.1758" y2="97.0248">
			<stop  offset="0" style="stop-color:#ED1971"/>
			<stop  offset="0.052" style="stop-color:#DD2F78"/>
			<stop  offset="0.2089" style="stop-color:#B34C8C"/>
			<stop  offset="0.3427" style="stop-color:#92599C"/>
			<stop  offset="0.4467" style="stop-color:#7C5FA5"/>
			<stop  offset="0.5081" style="stop-color:#7361AA"/>
			<stop  offset="0.5647" style="stop-color:#6D77B8"/>
			<stop  offset="0.6333" style="stop-color:#638DC8"/>
			<stop  offset="0.7036" style="stop-color:#58A1D6"/>
			<stop  offset="0.7747" style="stop-color:#4EB0E1"/>
			<stop  offset="0.8469" style="stop-color:#44BAE9"/>
			<stop  offset="0.921" style="stop-color:#3CC1ED"/>
			<stop  offset="1" style="stop-color:#38C4F0"/>
		</linearGradient>
		<path id="XMLID_10_" class="st10" d="M-351.5,36c-2.02-4.35-2.39-8.94-2.23-13.66c0.12-3.41,1.63-4.12,4.45-2.67
			c1.31,0.67,2.5,1.58,3.74,2.38c3.54,2.29,6.47,6.11,10.93,0.3c1.99-2.6,6.86-3.23,10.71-3.29c3.25-0.05,4.36-1.37,4.55-4.43
			c0.17-2.64,0.71-5.29,2.1-7.65c2.18-3.7,5.55-4,7.8-0.35c2,3.24,4,6.69,4.92,10.32c1.24,4.93,4.54,7.98,8.02,10.99
			c2.25,1.95,4.06,3.91,3.65,7.13c1.9,3.98,1.66,8.39,2.47,12.58c0.71,0.76,1.3,1.62,0.82,2.66c-1.59,3.43,0.34,5.52,2.61,7.71
			c7.99,7.71,15.97,15.26,21.4,25.35c3.05,5.66,5.95,11.18,5.98,17.44c0.04,8.24,2.22,16.43,1.83,24.38
			c-0.54,10.93-0.87,22.4-6.98,32.37c-0.83,1.36-1.72,2.85-1.21,5.16c3.38-2.2,6.83-4,9.74-6.44c7.76-6.5,16.91-9.17,26.64-8.87
			c3.89,0.12,8.05,0.65,12.07,1.42c3.78,0.73,7.72,0.27,11.56-0.53c0.71-0.15,1.44-0.19,2.16-0.18c1.7,0.03,3.21-0.81,4.76-1.35
			c3.54-1.25,5.74-0.42,6.32,3.5c-1.08,6.88-6.67,9.64-11.77,12.84c-4.87,2.18-10.09,1.66-15.2,2.09
			c-8.8,0.74-16.75,2.96-24.39,8.47c-5.82,4.2-10.7,9.74-17.03,12.99c-7.47,3.84-15.53,4.75-23.44,0.59
			c-5.65-2.97-10.34-7.26-15.29-11.18c-3.4-2.69-6.92-5.16-10.79-7.16c-8.37-4.33-16.55-4.29-24.73,0.53
			c-2.24,1.32-4.37,3.2-7.33,2.57"/>
		<linearGradient id="XMLID_124_" gradientUnits="userSpaceOnUse" x1="-463.7082" y1="105.9702" x2="-301.0972" y2="105.9702">
			<stop  offset="0" style="stop-color:#ED1971"/>
			<stop  offset="0.052" style="stop-color:#DD2F78"/>
			<stop  offset="0.2089" style="stop-color:#B34C8C"/>
			<stop  offset="0.3427" style="stop-color:#92599C"/>
			<stop  offset="0.4467" style="stop-color:#7C5FA5"/>
			<stop  offset="0.5081" style="stop-color:#7361AA"/>
			<stop  offset="0.5647" style="stop-color:#6D77B8"/>
			<stop  offset="0.6333" style="stop-color:#638DC8"/>
			<stop  offset="0.7036" style="stop-color:#58A1D6"/>
			<stop  offset="0.7747" style="stop-color:#4EB0E1"/>
			<stop  offset="0.8469" style="stop-color:#44BAE9"/>
			<stop  offset="0.921" style="stop-color:#3CC1ED"/>
			<stop  offset="1" style="stop-color:#38C4F0"/>
		</linearGradient>
		<path id="XMLID_12_" class="st11" d="M-345.79,157.97c2.47,4.36,4.48,8.83,3.13,14.04c-2.8,0.3-4.89,1.41-6.26,4.15
			c-1.46,2.93-4.29,4.82-7.19,5.97c-8.22,3.24-16.68,6.01-25.63,5.69c-5-0.18-10.34,1.04-14.87-2.75c-1.81-1.52-3.36,0.7-4.72,1.73
			c-7.84,5.94-17.99,7.07-25.7,4.34c-11.69-4.14-22.2-12.08-24.54-26.3c-0.79-4.78-1.41-9.57-1.04-14.41
			c0.63-8.43-1.82-16.51-2.68-24.76c-0.32-3.05-1.77-5.81-3.52-8.36c-0.36-0.52-0.68-1.07-0.93-1.65c-1.87-4.27-4-8.72-0.87-13.13
			c1.81-2.55,9.53-1.34,13.84,2.21c6.87,5.65,9.73,13.38,10.08,22.03c0.55,13.57,6.51,25.6,10.54,38.17
			c0.29,0.92,0.94,1.79,1.61,2.5c1.33,1.42,2.53,3.67,4.79,2.95c2.78-0.88,1.05-3.4,1.16-5.21c0.86-13.7,0.88-27.37,2.7-41.12
			c1.32-9.96,5.12-18.69,7.73-27.94c1.97-7,6.56-13.08,10.99-18.88c3.01-3.95,4.72-7.97,4.47-12.84
			c-0.42-8.16,2.81-14.93,8.01-20.87c2.31-2.64,3.41-5.66,4-8.98c0.87-4.85,3.05-9.13,5.78-13.17c1.76-2.6,3.71-2.67,5.58-0.21
			c1.6,2.12,3.82,4.2,4.35,6.61c1.7,7.73,6.82,9.02,13.46,8.2c7.25,5.4,7.43,5.41,15.48,0.72c0.14-0.08,0.28-0.19,0.43-0.26
			c3.09-1.52,6.51-4.29,9.65-1.59c3.03,2.61,0.67,6.28-0.47,9.29c-1.92,5.05-3.37,10.11-8.01,14.05c-2.41,2.04-2.8,7.46-1.03,10.98
			c1.42,2.82,0.81,4.2-1.45,5.11c-10.31,4.16-18.86,11.04-27.74,17.43c-2.13,1.53-4.33,0.46-6.04-0.76
			c-4.6-3.29-9.42-1.51-13.95-0.49c-4.1,0.92-4.22,7.42-1.11,11.47c6.04,7.85,14.28,6.9,22.28,5.65c8.42-1.32,17.09-1.57,25.17-4.79
			c0.59-0.24,1.25-0.31,1.87-0.46c0.57,5.93,4.82,2.04,7.33,2.88c4.88,1.63,6.35-1.33,7.36-4.84c1.31-4.55,3.54-7.7,8.7-8.3
			c6.45-0.75,10.39,2.63,10.44,9.29c0.02,3.07-0.75,5.93-1.9,8.72c-0.8,2.78-2.96,4.15-5.11,5.51c-1.63,1.03-3.03,2.36-4.3,3.82
			c-3.27,3.76-7.64,5.16-12.75,5.03c-2.93-0.08-4.56,3.45-7.7,2.8"/>
		<linearGradient id="XMLID_125_" gradientUnits="userSpaceOnUse" x1="-353.7441" y1="142.2829" x2="-332.6232" y2="142.2829">
			<stop  offset="0" style="stop-color:#ED1971"/>
			<stop  offset="0.052" style="stop-color:#DD2F78"/>
			<stop  offset="0.2089" style="stop-color:#B34C8C"/>
			<stop  offset="0.3427" style="stop-color:#92599C"/>
			<stop  offset="0.4467" style="stop-color:#7C5FA5"/>
			<stop  offset="0.5081" style="stop-color:#7361AA"/>
			<stop  offset="0.5647" style="stop-color:#6D77B8"/>
			<stop  offset="0.6333" style="stop-color:#638DC8"/>
			<stop  offset="0.7036" style="stop-color:#58A1D6"/>
			<stop  offset="0.7747" style="stop-color:#4EB0E1"/>
			<stop  offset="0.8469" style="stop-color:#44BAE9"/>
			<stop  offset="0.921" style="stop-color:#3CC1ED"/>
			<stop  offset="1" style="stop-color:#38C4F0"/>
		</linearGradient>
		<path id="XMLID_4_" class="st12" d="M-345.79,157.97c-7.39-0.15-7.86-1.03-4.27-7.65c2.35-4.34,3.56-8.78,1.81-13.78
			c-1.18-3.38-0.48-6.2,3.67-7.2c3.39-0.81,6.22-4.25,10.22-2.09c-0.68,2.74-2.29,4.72-1.09,8.5c1.03,3.27-2.72,8.15-6.12,11.27
			C-344.8,149.99-346.77,153.41-345.79,157.97z"/>
	</g>
	<g id="XMLID_5_">
		<linearGradient id="XMLID_126_" gradientUnits="userSpaceOnUse" x1="121.4312" y1="104.2097" x2="121.4312" y2="104.2097">
			<stop  offset="0" style="stop-color:#ED1971"/>
			<stop  offset="0.052" style="stop-color:#DD2F78"/>
			<stop  offset="0.2089" style="stop-color:#B34C8C"/>
			<stop  offset="0.3427" style="stop-color:#92599C"/>
			<stop  offset="0.4467" style="stop-color:#7C5FA5"/>
			<stop  offset="0.5081" style="stop-color:#7361AA"/>
			<stop  offset="0.5647" style="stop-color:#6D77B8"/>
			<stop  offset="0.6333" style="stop-color:#638DC8"/>
			<stop  offset="0.7036" style="stop-color:#58A1D6"/>
			<stop  offset="0.7747" style="stop-color:#4EB0E1"/>
			<stop  offset="0.8469" style="stop-color:#44BAE9"/>
			<stop  offset="0.921" style="stop-color:#3CC1ED"/>
			<stop  offset="1" style="stop-color:#38C4F0"/>
		</linearGradient>
		<path id="XMLID_9_" class="st13" d="M121.43,104.21"/>
		<linearGradient id="XMLID_127_" gradientUnits="userSpaceOnUse" x1="108.4418" y1="94.4675" x2="272.5323" y2="94.4675">
			<stop  offset="0" style="stop-color:#ED1971"/>
			<stop  offset="0.052" style="stop-color:#DD2F78"/>
			<stop  offset="0.2089" style="stop-color:#B34C8C"/>
			<stop  offset="0.3427" style="stop-color:#92599C"/>
			<stop  offset="0.4467" style="stop-color:#7C5FA5"/>
			<stop  offset="0.5081" style="stop-color:#7361AA"/>
			<stop  offset="0.5647" style="stop-color:#6D77B8"/>
			<stop  offset="0.6333" style="stop-color:#638DC8"/>
			<stop  offset="0.7036" style="stop-color:#58A1D6"/>
			<stop  offset="0.7747" style="stop-color:#4EB0E1"/>
			<stop  offset="0.8469" style="stop-color:#44BAE9"/>
			<stop  offset="0.921" style="stop-color:#3CC1ED"/>
			<stop  offset="1" style="stop-color:#38C4F0"/>
		</linearGradient>
		<path id="XMLID_8_" class="st14" d="M112.21,33.44c-2.02-4.35-2.39-8.94-2.23-13.66c0.12-3.41,1.63-4.12,4.45-2.67
			c1.31,0.67,2.5,1.58,3.74,2.38c3.54,2.29,6.47,6.11,10.93,0.3c1.99-2.6,6.86-3.23,10.71-3.29c3.25-0.05,4.36-1.37,4.55-4.43
			c0.17-2.64,0.71-5.29,2.1-7.65c2.18-3.7,5.55-4,7.8-0.35c2,3.24,4,6.69,4.92,10.32c1.24,4.93,4.54,7.98,8.02,10.99
			c2.25,1.95,4.06,3.91,3.65,7.13c1.9,3.98,1.66,8.39,2.47,12.58c0.71,0.76,1.3,1.62,0.82,2.66c-1.59,3.43,0.34,5.52,2.61,7.71
			c7.99,7.71,15.97,15.26,21.4,25.35c3.05,5.66,5.95,11.18,5.98,17.44c0.04,8.24,2.22,16.43,1.83,24.38
			c-0.54,10.93-0.87,22.4-6.98,32.37c-0.83,1.36-1.72,2.85-1.21,5.16c3.38-2.2,6.83-4,9.74-6.44c7.76-6.5,16.91-9.17,26.64-8.87
			c3.89,0.12,8.05,0.65,12.07,1.42c3.78,0.73,7.72,0.27,11.56-0.53c0.71-0.15,1.44-0.19,2.16-0.18c1.7,0.03,3.21-0.81,4.76-1.35
			c3.54-1.25,5.74-0.42,6.32,3.5c-1.08,6.88-6.67,9.64-11.77,12.84c-4.87,2.18-10.09,1.66-15.2,2.09
			c-8.8,0.74-16.75,2.96-24.39,8.47c-5.82,4.2-10.7,9.74-17.03,12.99c-7.47,3.84-15.53,4.75-23.44,0.59
			c-5.65-2.97-10.34-7.26-15.29-11.18c-3.4-2.69-6.92-5.16-10.79-7.16c-8.37-4.33-16.55-4.29-24.73,0.53
			c-2.24,1.32-4.37,3.2-7.33,2.57"/>
		<linearGradient id="XMLID_128_" gradientUnits="userSpaceOnUse" x1="4.644804e-06" y1="103.4128" x2="162.611" y2="103.4128">
			<stop  offset="0" style="stop-color:#ED1971"/>
			<stop  offset="0.052" style="stop-color:#DD2F78"/>
			<stop  offset="0.2089" style="stop-color:#B34C8C"/>
			<stop  offset="0.3427" style="stop-color:#92599C"/>
			<stop  offset="0.4467" style="stop-color:#7C5FA5"/>
			<stop  offset="0.5081" style="stop-color:#7361AA"/>
			<stop  offset="0.5647" style="stop-color:#6D77B8"/>
			<stop  offset="0.6333" style="stop-color:#638DC8"/>
			<stop  offset="0.7036" style="stop-color:#58A1D6"/>
			<stop  offset="0.7747" style="stop-color:#4EB0E1"/>
			<stop  offset="0.8469" style="stop-color:#44BAE9"/>
			<stop  offset="0.921" style="stop-color:#3CC1ED"/>
			<stop  offset="1" style="stop-color:#38C4F0"/>
		</linearGradient>
		<path id="XMLID_7_" class="st15" d="M117.91,155.42c2.47,4.36,4.48,8.83,3.13,14.04c-2.8,0.3-4.89,1.41-6.26,4.15
			c-1.46,2.93-4.29,4.82-7.19,5.97c-8.22,3.24-16.68,6.01-25.63,5.69c-5-0.18-10.34,1.04-14.87-2.75c-1.81-1.52-3.36,0.7-4.72,1.73
			c-7.84,5.94-17.99,7.07-25.7,4.34c-11.69-4.14-22.2-12.08-24.54-26.3c-0.79-4.78-1.41-9.57-1.04-14.41
			c0.63-8.43-1.82-16.51-2.68-24.76c-0.32-3.05-1.77-5.81-3.52-8.36c-0.36-0.52-0.68-1.07-0.93-1.65c-1.87-4.27-4-8.72-0.87-13.13
			c1.81-2.55,9.53-1.34,13.84,2.21c6.87,5.65,9.73,13.38,10.08,22.03c0.55,13.57,6.51,25.6,10.54,38.17
			c0.29,0.92,0.94,1.79,1.61,2.5c1.33,1.42,2.53,3.67,4.79,2.95c2.78-0.88,1.05-3.4,1.16-5.21c0.86-13.7,0.88-27.37,2.7-41.12
			c1.32-9.96,5.12-18.69,7.73-27.94c1.97-7,6.56-13.08,10.99-18.88c3.01-3.95,4.72-7.97,4.47-12.84
			c-0.42-8.16,2.81-14.93,8.01-20.87c2.31-2.64,3.41-5.66,4-8.98c0.87-4.85,3.05-9.13,5.78-13.17c1.76-2.6,3.71-2.67,5.58-0.21
			c1.6,2.12,3.82,4.2,4.35,6.61c1.7,7.73,6.82,9.02,13.46,8.2c7.25,5.4,7.43,5.41,15.48,0.72c0.14-0.08,0.28-0.19,0.43-0.26
			c3.09-1.52,6.51-4.29,9.65-1.59c3.03,2.61,0.67,6.28-0.47,9.29c-1.92,5.05-3.37,10.11-8.01,14.05c-2.41,2.04-2.8,7.46-1.03,10.98
			c1.42,2.82,0.81,4.2-1.45,5.11c-10.31,4.16-18.86,11.04-27.74,17.43c-2.13,1.53-4.33,0.46-6.04-0.76
			c-4.6-3.29-9.42-1.51-13.95-0.49c-4.1,0.92-4.22,7.42-1.11,11.47c6.04,7.85,14.28,6.9,22.28,5.65c8.42-1.32,17.09-1.57,25.17-4.79
			c0.59-0.24,1.25-0.31,1.87-0.46c0.57,5.93,4.82,2.04,7.33,2.88c4.88,1.63,6.35-1.33,7.36-4.84c1.31-4.55,3.54-7.7,8.7-8.3
			c6.45-0.75,10.39,2.63,10.44,9.29c0.02,3.07-0.75,5.93-1.9,8.72c-0.8,2.78-2.96,4.15-5.11,5.51c-1.63,1.03-3.03,2.36-4.3,3.82
			c-3.27,3.76-7.64,5.16-12.75,5.03c-2.93-0.08-4.56,3.45-7.7,2.8"/>
		<linearGradient id="XMLID_129_" gradientUnits="userSpaceOnUse" x1="109.964" y1="139.7255" x2="131.085" y2="139.7255">
			<stop  offset="0" style="stop-color:#ED1971"/>
			<stop  offset="0.052" style="stop-color:#DD2F78"/>
			<stop  offset="0.2089" style="stop-color:#B34C8C"/>
			<stop  offset="0.3427" style="stop-color:#92599C"/>
			<stop  offset="0.4467" style="stop-color:#7C5FA5"/>
			<stop  offset="0.5081" style="stop-color:#7361AA"/>
			<stop  offset="0.5647" style="stop-color:#6D77B8"/>
			<stop  offset="0.6333" style="stop-color:#638DC8"/>
			<stop  offset="0.7036" style="stop-color:#58A1D6"/>
			<stop  offset="0.7747" style="stop-color:#4EB0E1"/>
			<stop  offset="0.8469" style="stop-color:#44BAE9"/>
			<stop  offset="0.921" style="stop-color:#3CC1ED"/>
			<stop  offset="1" style="stop-color:#38C4F0"/>
		</linearGradient>
		<path id="XMLID_6_" class="st16" d="M117.91,155.42c-7.39-0.15-7.86-1.03-4.27-7.65c2.35-4.34,3.56-8.78,1.81-13.78
			c-1.18-3.38-0.48-6.2,3.67-7.2c3.39-0.81,6.22-4.25,10.22-2.09c-0.68,2.74-2.29,4.72-1.09,8.5c1.03,3.27-2.72,8.15-6.12,11.27
			C118.91,147.43,116.94,150.85,117.91,155.42z"/>
	</g>
</g>
</svg>
