<?xml version="1.0" encoding="utf-8"?>
<!-- Generator: Adobe Illustrator 19.0.0, SVG Export Plug-In . SVG Version: 6.00 Build 0)  -->
<svg version="1.1" xmlns="http://www.w3.org/2000/svg" xmlns:xlink="http://www.w3.org/1999/xlink" x="0px" y="0px"
	 viewBox="0 0 27.48 25.21" style="enable-background:new 0 0 27.48 25.21;" xml:space="preserve">
<style type="text/css">
	.st0{display:none;}
	.st1{display:inline;}
	.st2{fill:#6D6D6D;}
	.st3{fill:#DDDDDD;}
	.st4{fill:#6A6A6A;}
	.st5{fill:#626262;}
	.st6{fill:#686868;}
	.st7{fill:#FEFEFE;}
	.st8{fill:#606060;}
	.st9{fill:none;stroke:url(#XMLID_190_);stroke-width:3;stroke-miterlimit:10;}
	.st10{fill:none;stroke:url(#XMLID_191_);stroke-width:3;stroke-miterlimit:10;}
	.st11{fill:none;stroke:url(#XMLID_192_);stroke-width:3;stroke-miterlimit:10;}
	.st12{fill:none;stroke:url(#XMLID_193_);stroke-width:3;stroke-miterlimit:10;}
	.st13{fill:none;stroke:url(#XMLID_194_);stroke-width:3;stroke-miterlimit:10;}
	.st14{fill:none;stroke:url(#XMLID_195_);stroke-width:3;stroke-miterlimit:10;}
	.st15{fill:none;stroke:url(#XMLID_196_);stroke-width:3;stroke-miterlimit:10;}
	.st16{fill:none;stroke:url(#XMLID_197_);stroke-width:3;stroke-miterlimit:10;}
	.st17{fill:none;stroke:url(#M1LHg1.tif_1_);stroke-width:2;stroke-miterlimit:10;}
	.st18{fill:url(#XMLID_198_);}
	.st19{fill:#93D9F5;}
</style>
<g id="Layer_1" class="st0">
	<g id="XMLID_1_" class="st1">
		<path id="XMLID_141_" class="st2" d="M-434.54-466.47c-2.02-4.35-2.39-8.94-2.23-13.66c0.12-3.41,1.63-4.12,4.45-2.67
			c1.31,0.67,2.5,1.58,3.74,2.38c3.54,2.29,6.47,6.11,10.93,0.3c1.99-2.6,6.86-3.23,10.71-3.29c3.25-0.05,4.36-1.37,4.55-4.43
			c0.17-2.64,0.71-5.29,2.1-7.65c2.18-3.7,5.55-4,7.8-0.35c2,3.24,4,6.69,4.92,10.32c1.24,4.93,4.54,7.98,8.02,10.99
			c2.25,1.95,4.06,3.91,3.65,7.13c1.9,3.98,1.66,8.39,2.47,12.58c0.71,0.76,1.3,1.62,0.82,2.66c-1.59,3.43,0.34,5.52,2.61,7.71
			c7.99,7.71,15.97,15.26,21.4,25.35c3.05,5.66,5.95,11.18,5.98,17.44c0.04,8.24,2.22,16.43,1.83,24.38
			c-0.54,10.93-0.87,22.4-6.98,32.37c-0.83,1.36-1.72,2.85-1.21,5.16c3.38-2.2,6.83-4,9.74-6.44c7.76-6.5,16.91-9.17,26.64-8.87
			c3.89,0.12,8.05,0.65,12.07,1.42c4.21,0.81,8.6,0.15,12.84-0.8c2.06,0.43,3.84-0.62,5.64-1.26c3.54-1.25,5.74-0.42,6.32,3.5
			c-1.08,6.88-6.67,9.64-11.77,12.84c-4.87,2.18-10.09,1.66-15.2,2.09c-8.8,0.74-16.75,2.96-24.39,8.47
			c-5.82,4.2-10.7,9.74-17.03,12.99c-7.47,3.84-15.53,4.75-23.44,0.59c-5.65-2.97-10.34-7.26-15.29-11.18
			c-3.4-2.69-6.92-5.16-10.79-7.16c-8.37-4.33-16.55-4.29-24.73,0.53c-2.24,1.32-4.37,3.2-7.33,2.57c-3.02-3.99-3-9.15-5.17-13.48
			c-2.13-5.63,1.16-9.61,4.47-13.25c3.17-3.49,5.48-7.03,4.63-11.95c-0.52-3.02,1.89-4.79,3.06-7.08c3.34-2.77,7.31-4.69,11.48-4.89
			c4.44-0.22,7.31-2.26,9.92-5.32c3.07-1.79,5.87-3.87,7.39-7.24c1.8-3.65,2.36-7.14-0.27-10.8c-2.96-4.12-7.5-4.34-10.59-0.24
			c-0.92,1.22-1.34,2.67-1.83,4.08c-1.5,4.28-4.38,6.49-9.06,6.22c-3.61-0.21-7.32,0.69-10.72-1.39c-0.84-0.51-1.94-0.12-2.93,0.09
			c-10.56,2.24-21.2,3.91-32.05,3.66c-8.08-0.18-14.6-5.55-15.95-13.04c-0.9-5,1.82-8.96,6.79-9.68c4.59-0.66,9.17-1.64,13.69,0.72
			c2.11,1.1,4.28-0.02,6.17-1.07c7.86-4.34,14.57-10.54,22.85-14.24c1.92-0.86,1.93-2.77,2.06-4.71c0.39-5.7,0.2-11.39,5.62-15.71
			c3.16-2.52,3.79-7.31,4.84-11.31c0.8-3.05-0.89-4.41-3.96-3.57c-2.44,0.67-4.39,2.37-6.64,3.42
			C-427.85-458.44-433.69-460.88-434.54-466.47z"/>
		<path id="XMLID_140_" class="st3" d="M-428.83-344.5c2.47,4.36,4.48,8.83,3.13,14.04c-2.8,0.3-4.89,1.41-6.26,4.15
			c-1.46,2.93-4.29,4.82-7.19,5.97c-8.22,3.24-16.68,6.01-25.63,5.69c-5-0.18-10.34,1.04-14.87-2.75c-1.81-1.52-3.36,0.7-4.72,1.73
			c-7.84,5.94-17.99,7.07-25.7,4.34c-11.69-4.14-22.2-12.08-24.54-26.3c-0.79-4.78-1.41-9.57-1.04-14.41
			c0.63-8.43-1.82-16.51-2.68-24.76c-0.28-2.67-1.43-5.12-2.88-7.4c-0.54-0.84-1.15-1.66-1.55-2.56c-1.87-4.29-4.03-8.75-0.89-13.17
			c1.81-2.55,9.53-1.34,13.84,2.21c6.87,5.65,9.73,13.38,10.08,22.03c0.55,13.57,6.51,25.6,10.54,38.17
			c0.29,0.92,0.94,1.79,1.61,2.5c1.33,1.42,2.53,3.67,4.79,2.95c2.78-0.88,1.05-3.4,1.16-5.21c0.86-13.7,0.88-27.37,2.7-41.12
			c1.32-9.96,5.12-18.69,7.73-27.94c1.97-7,6.56-13.08,10.99-18.88c3.01-3.95,4.72-7.97,4.47-12.84
			c-0.42-8.16,2.81-14.93,8.01-20.87c2.31-2.64,3.41-5.66,4-8.98c0.87-4.85,3.05-9.13,5.78-13.17c1.76-2.6,3.71-2.67,5.58-0.21
			c1.6,2.12,3.82,4.2,4.35,6.61c1.7,7.73,6.82,9.02,13.46,8.2c7.25,5.4,7.43,5.41,15.48,0.72c0.14-0.08,0.28-0.19,0.43-0.26
			c3.09-1.52,6.51-4.29,9.65-1.59c3.03,2.61,0.67,6.28-0.47,9.29c-1.92,5.05-3.37,10.11-8.01,14.05c-2.41,2.04-2.8,7.46-1.03,10.98
			c1.42,2.82,0.81,4.2-1.45,5.11c-10.31,4.15-18.86,11.04-27.74,17.43c-2.13,1.53-4.33,0.46-6.04-0.76
			c-4.6-3.29-9.42-1.51-13.95-0.49c-4.1,0.92-4.22,7.42-1.11,11.47c6.04,7.85,14.28,6.9,22.28,5.65c8.42-1.32,17.09-1.57,25.17-4.79
			c0.59-0.24,1.25-0.31,1.87-0.46c0.57,5.93,4.82,2.04,7.33,2.88c4.88,1.63,6.35-1.33,7.36-4.84c1.31-4.55,3.54-7.7,8.7-8.3
			c6.45-0.75,10.39,2.63,10.44,9.29c0.02,3.07-0.75,5.93-1.9,8.72c-1.22,4.21-5.52,5.17-8.23,7.81c-3.36,4.91-8.18,6.71-13.92,6.55
			c-2.93-0.08-4.56,3.45-7.7,2.8c-3.15,0.94-5.75,2.97-8.65,4.38c-1.76,0.86-2.73,2.4-2.25,4.5c1.2,5.24,0.17,10.17-2.28,14.81
			C-432.17-348.51-431.96-346.21-428.83-344.5z"/>
		<path id="XMLID_109_" class="st4" d="M-276.7-351.46c-0.31-3.55-2.34-4.23-5.42-3.33c-1.82,0.53-3.63,1.6-5.57,0.35
			c1.87-0.68,3.75-1.32,5.6-2.03c2.13-0.82,3.98-1.08,5.87,0.85c2.05,2.09,1.88,4.03,0.55,6.24
			C-276.49-349.84-275.98-350.95-276.7-351.46z"/>
		<path id="XMLID_108_" class="st5" d="M-276.7-351.46c0.34,0.69,0.68,1.39,1.03,2.08c-2.35,5.21-6.3,8.55-11.83,10.03
			c0.63-0.72,1.13-1.69,1.92-2.13C-281.44-343.8-277.93-346.6-276.7-351.46z"/>
		<path id="XMLID_107_" class="st6" d="M-373.42-454.81c-2.2-3.92-1.5-8.42-2.47-12.58C-373.01-463.6-372.59-459.33-373.42-454.81z"
			/>
		<path id="XMLID_106_" class="st7" d="M-428.83-344.5c-7.39-0.15-7.86-1.03-4.27-7.65c2.35-4.34,3.56-8.78,1.81-13.78
			c-1.18-3.38-0.48-6.2,3.67-7.2c3.39-0.81,6.22-4.25,10.22-2.09c-0.68,2.74-2.29,4.72-1.09,8.5c1.03,3.27-2.72,8.15-6.12,11.27
			C-427.84-352.48-429.8-349.07-428.83-344.5z"/>
		<path id="XMLID_105_" class="st8" d="M-395.77-384.57c1.75-3.65,6.23-4.42,8.23-7.81C-388.11-387.48-392.1-386.19-395.77-384.57z"
			/>
	</g>
</g>
<g id="Layer_2">
	<g id="XMLID_2_">
		<linearGradient id="XMLID_190_" gradientUnits="userSpaceOnUse" x1="-350.6075" y1="-425.0898" x2="-350.6075" y2="-425.0898">
			<stop  offset="0" style="stop-color:#ED1971"/>
			<stop  offset="0.052" style="stop-color:#DD2F78"/>
			<stop  offset="0.2089" style="stop-color:#B34C8C"/>
			<stop  offset="0.3427" style="stop-color:#92599C"/>
			<stop  offset="0.4467" style="stop-color:#7C5FA5"/>
			<stop  offset="0.5081" style="stop-color:#7361AA"/>
			<stop  offset="0.5647" style="stop-color:#6D77B8"/>
			<stop  offset="0.6333" style="stop-color:#638DC8"/>
			<stop  offset="0.7036" style="stop-color:#58A1D6"/>
			<stop  offset="0.7747" style="stop-color:#4EB0E1"/>
			<stop  offset="0.8469" style="stop-color:#44BAE9"/>
			<stop  offset="0.921" style="stop-color:#3CC1ED"/>
			<stop  offset="1" style="stop-color:#38C4F0"/>
		</linearGradient>
		<path id="XMLID_11_" class="st9" d="M-350.61-425.09"/>
		<linearGradient id="XMLID_191_" gradientUnits="userSpaceOnUse" x1="-363.597" y1="-434.832" x2="-199.5064" y2="-434.832">
			<stop  offset="0" style="stop-color:#ED1971"/>
			<stop  offset="0.052" style="stop-color:#DD2F78"/>
			<stop  offset="0.2089" style="stop-color:#B34C8C"/>
			<stop  offset="0.3427" style="stop-color:#92599C"/>
			<stop  offset="0.4467" style="stop-color:#7C5FA5"/>
			<stop  offset="0.5081" style="stop-color:#7361AA"/>
			<stop  offset="0.5647" style="stop-color:#6D77B8"/>
			<stop  offset="0.6333" style="stop-color:#638DC8"/>
			<stop  offset="0.7036" style="stop-color:#58A1D6"/>
			<stop  offset="0.7747" style="stop-color:#4EB0E1"/>
			<stop  offset="0.8469" style="stop-color:#44BAE9"/>
			<stop  offset="0.921" style="stop-color:#3CC1ED"/>
			<stop  offset="1" style="stop-color:#38C4F0"/>
		</linearGradient>
		<path id="XMLID_10_" class="st10" d="M-359.83-495.85c-2.02-4.35-2.39-8.94-2.23-13.66c0.12-3.41,1.63-4.12,4.45-2.67
			c1.31,0.67,2.5,1.58,3.74,2.38c3.54,2.29,6.47,6.11,10.93,0.3c1.99-2.6,6.86-3.23,10.71-3.29c3.25-0.05,4.36-1.37,4.55-4.43
			c0.17-2.64,0.71-5.29,2.1-7.65c2.18-3.7,5.55-4,7.8-0.35c2,3.24,4,6.69,4.92,10.32c1.24,4.93,4.54,7.98,8.02,10.99
			c2.25,1.95,4.06,3.91,3.65,7.13c1.9,3.98,1.66,8.39,2.47,12.58c0.71,0.76,1.3,1.62,0.82,2.66c-1.59,3.43,0.34,5.52,2.61,7.71
			c7.99,7.71,15.97,15.26,21.4,25.35c3.05,5.66,5.95,11.18,5.98,17.44c0.04,8.24,2.22,16.43,1.83,24.38
			c-0.54,10.93-0.87,22.4-6.98,32.37c-0.83,1.36-1.72,2.85-1.21,5.16c3.38-2.2,6.83-4,9.74-6.44c7.76-6.5,16.91-9.17,26.64-8.87
			c3.89,0.12,8.05,0.65,12.07,1.42c3.78,0.73,7.72,0.27,11.56-0.53c0.71-0.15,1.44-0.19,2.16-0.18c1.7,0.03,3.21-0.81,4.76-1.35
			c3.54-1.25,5.74-0.42,6.32,3.5c-1.08,6.88-6.67,9.64-11.77,12.84c-4.87,2.18-10.09,1.66-15.2,2.09
			c-8.8,0.74-16.75,2.96-24.39,8.47c-5.82,4.2-10.7,9.74-17.03,12.99c-7.47,3.84-15.53,4.75-23.44,0.59
			c-5.65-2.97-10.34-7.26-15.29-11.18c-3.4-2.69-6.92-5.16-10.79-7.16c-8.37-4.33-16.55-4.29-24.73,0.53
			c-2.24,1.32-4.37,3.2-7.33,2.57"/>
		<linearGradient id="XMLID_192_" gradientUnits="userSpaceOnUse" x1="-472.0387" y1="-425.8867" x2="-309.4278" y2="-425.8867">
			<stop  offset="0" style="stop-color:#ED1971"/>
			<stop  offset="0.052" style="stop-color:#DD2F78"/>
			<stop  offset="0.2089" style="stop-color:#B34C8C"/>
			<stop  offset="0.3427" style="stop-color:#92599C"/>
			<stop  offset="0.4467" style="stop-color:#7C5FA5"/>
			<stop  offset="0.5081" style="stop-color:#7361AA"/>
			<stop  offset="0.5647" style="stop-color:#6D77B8"/>
			<stop  offset="0.6333" style="stop-color:#638DC8"/>
			<stop  offset="0.7036" style="stop-color:#58A1D6"/>
			<stop  offset="0.7747" style="stop-color:#4EB0E1"/>
			<stop  offset="0.8469" style="stop-color:#44BAE9"/>
			<stop  offset="0.921" style="stop-color:#3CC1ED"/>
			<stop  offset="1" style="stop-color:#38C4F0"/>
		</linearGradient>
		<path id="XMLID_12_" class="st11" d="M-354.12-373.88c2.47,4.36,4.48,8.83,3.13,14.04c-2.8,0.3-4.89,1.41-6.26,4.15
			c-1.46,2.93-4.29,4.82-7.19,5.97c-8.22,3.24-16.68,6.01-25.63,5.69c-5-0.18-10.34,1.04-14.87-2.75c-1.81-1.52-3.36,0.7-4.72,1.73
			c-7.84,5.94-17.99,7.07-25.7,4.34c-11.69-4.14-22.2-12.08-24.54-26.3c-0.79-4.78-1.41-9.57-1.04-14.41
			c0.63-8.43-1.82-16.51-2.68-24.76c-0.32-3.05-1.77-5.81-3.52-8.36c-0.36-0.52-0.68-1.07-0.93-1.65c-1.87-4.27-4-8.72-0.87-13.13
			c1.81-2.55,9.53-1.34,13.84,2.21c6.87,5.65,9.73,13.38,10.08,22.03c0.55,13.57,6.51,25.6,10.54,38.17
			c0.29,0.92,0.94,1.79,1.61,2.5c1.33,1.42,2.53,3.67,4.79,2.95c2.78-0.88,1.05-3.4,1.16-5.21c0.86-13.7,0.88-27.37,2.7-41.12
			c1.32-9.96,5.12-18.69,7.73-27.94c1.97-7,6.56-13.08,10.99-18.88c3.01-3.95,4.72-7.97,4.47-12.84
			c-0.42-8.16,2.81-14.93,8.01-20.87c2.31-2.64,3.41-5.66,4-8.98c0.87-4.85,3.05-9.13,5.78-13.17c1.76-2.6,3.71-2.67,5.58-0.21
			c1.6,2.12,3.82,4.2,4.35,6.61c1.7,7.73,6.82,9.02,13.46,8.2c7.25,5.4,7.43,5.41,15.48,0.72c0.14-0.08,0.28-0.19,0.43-0.26
			c3.09-1.52,6.51-4.29,9.65-1.59c3.03,2.61,0.67,6.28-0.47,9.29c-1.92,5.05-3.37,10.11-8.01,14.05c-2.41,2.04-2.8,7.46-1.03,10.98
			c1.42,2.82,0.81,4.2-1.45,5.11c-10.31,4.16-18.86,11.04-27.74,17.43c-2.13,1.53-4.33,0.46-6.04-0.76
			c-4.6-3.29-9.42-1.51-13.95-0.49c-4.1,0.92-4.22,7.42-1.11,11.47c6.04,7.85,14.28,6.9,22.28,5.65c8.42-1.32,17.09-1.57,25.17-4.79
			c0.59-0.24,1.25-0.31,1.87-0.46c0.57,5.93,4.82,2.04,7.33,2.88c4.88,1.63,6.35-1.33,7.36-4.84c1.31-4.55,3.54-7.7,8.7-8.3
			c6.45-0.75,10.39,2.63,10.44,9.29c0.02,3.07-0.75,5.93-1.9,8.72c-0.8,2.78-2.96,4.15-5.11,5.51c-1.63,1.03-3.03,2.36-4.3,3.82
			c-3.27,3.76-7.64,5.16-12.75,5.03c-2.93-0.08-4.56,3.45-7.7,2.8"/>
		<linearGradient id="XMLID_193_" gradientUnits="userSpaceOnUse" x1="-362.0747" y1="-389.574" x2="-340.9538" y2="-389.574">
			<stop  offset="0" style="stop-color:#ED1971"/>
			<stop  offset="0.052" style="stop-color:#DD2F78"/>
			<stop  offset="0.2089" style="stop-color:#B34C8C"/>
			<stop  offset="0.3427" style="stop-color:#92599C"/>
			<stop  offset="0.4467" style="stop-color:#7C5FA5"/>
			<stop  offset="0.5081" style="stop-color:#7361AA"/>
			<stop  offset="0.5647" style="stop-color:#6D77B8"/>
			<stop  offset="0.6333" style="stop-color:#638DC8"/>
			<stop  offset="0.7036" style="stop-color:#58A1D6"/>
			<stop  offset="0.7747" style="stop-color:#4EB0E1"/>
			<stop  offset="0.8469" style="stop-color:#44BAE9"/>
			<stop  offset="0.921" style="stop-color:#3CC1ED"/>
			<stop  offset="1" style="stop-color:#38C4F0"/>
		</linearGradient>
		<path id="XMLID_4_" class="st12" d="M-354.12-373.88c-7.39-0.15-7.86-1.03-4.27-7.65c2.35-4.34,3.56-8.78,1.81-13.78
			c-1.18-3.38-0.48-6.2,3.67-7.2c3.39-0.81,6.22-4.25,10.22-2.09c-0.68,2.74-2.29,4.72-1.09,8.5c1.03,3.27-2.72,8.15-6.12,11.27
			C-353.13-381.87-355.1-378.45-354.12-373.88z"/>
	</g>
	<g id="XMLID_5_">
		<linearGradient id="XMLID_194_" gradientUnits="userSpaceOnUse" x1="113.1007" y1="-427.6472" x2="113.1007" y2="-427.6472">
			<stop  offset="0" style="stop-color:#ED1971"/>
			<stop  offset="0.052" style="stop-color:#DD2F78"/>
			<stop  offset="0.2089" style="stop-color:#B34C8C"/>
			<stop  offset="0.3427" style="stop-color:#92599C"/>
			<stop  offset="0.4467" style="stop-color:#7C5FA5"/>
			<stop  offset="0.5081" style="stop-color:#7361AA"/>
			<stop  offset="0.5647" style="stop-color:#6D77B8"/>
			<stop  offset="0.6333" style="stop-color:#638DC8"/>
			<stop  offset="0.7036" style="stop-color:#58A1D6"/>
			<stop  offset="0.7747" style="stop-color:#4EB0E1"/>
			<stop  offset="0.8469" style="stop-color:#44BAE9"/>
			<stop  offset="0.921" style="stop-color:#3CC1ED"/>
			<stop  offset="1" style="stop-color:#38C4F0"/>
		</linearGradient>
		<path id="XMLID_9_" class="st13" d="M113.1-427.65"/>
		<linearGradient id="XMLID_195_" gradientUnits="userSpaceOnUse" x1="100.1112" y1="-437.3894" x2="264.2018" y2="-437.3894">
			<stop  offset="0" style="stop-color:#ED1971"/>
			<stop  offset="0.052" style="stop-color:#DD2F78"/>
			<stop  offset="0.2089" style="stop-color:#B34C8C"/>
			<stop  offset="0.3427" style="stop-color:#92599C"/>
			<stop  offset="0.4467" style="stop-color:#7C5FA5"/>
			<stop  offset="0.5081" style="stop-color:#7361AA"/>
			<stop  offset="0.5647" style="stop-color:#6D77B8"/>
			<stop  offset="0.6333" style="stop-color:#638DC8"/>
			<stop  offset="0.7036" style="stop-color:#58A1D6"/>
			<stop  offset="0.7747" style="stop-color:#4EB0E1"/>
			<stop  offset="0.8469" style="stop-color:#44BAE9"/>
			<stop  offset="0.921" style="stop-color:#3CC1ED"/>
			<stop  offset="1" style="stop-color:#38C4F0"/>
		</linearGradient>
		<path id="XMLID_8_" class="st14" d="M103.88-498.41c-2.02-4.35-2.39-8.94-2.23-13.66c0.12-3.41,1.63-4.12,4.45-2.67
			c1.31,0.67,2.5,1.58,3.74,2.38c3.54,2.29,6.47,6.11,10.93,0.3c1.99-2.6,6.86-3.23,10.71-3.29c3.25-0.05,4.36-1.37,4.55-4.43
			c0.17-2.64,0.71-5.29,2.1-7.65c2.18-3.7,5.55-4,7.8-0.35c2,3.24,4,6.69,4.92,10.32c1.24,4.93,4.54,7.98,8.02,10.99
			c2.25,1.95,4.06,3.91,3.65,7.13c1.9,3.98,1.66,8.39,2.47,12.58c0.71,0.76,1.3,1.62,0.82,2.66c-1.59,3.43,0.34,5.52,2.61,7.71
			c7.99,7.71,15.97,15.26,21.4,25.35c3.05,5.66,5.95,11.18,5.98,17.44c0.04,8.24,2.22,16.43,1.83,24.38
			c-0.54,10.93-0.87,22.4-6.98,32.37c-0.83,1.36-1.72,2.85-1.21,5.16c3.38-2.2,6.83-4,9.74-6.44c7.76-6.5,16.91-9.17,26.64-8.87
			c3.89,0.12,8.05,0.65,12.07,1.42c3.78,0.73,7.72,0.27,11.56-0.53c0.71-0.15,1.44-0.19,2.16-0.18c1.7,0.03,3.21-0.81,4.76-1.35
			c3.54-1.25,5.74-0.42,6.32,3.5c-1.08,6.88-6.67,9.64-11.77,12.84c-4.87,2.18-10.09,1.66-15.2,2.09
			c-8.8,0.74-16.75,2.96-24.39,8.47c-5.82,4.2-10.7,9.74-17.03,12.99c-7.47,3.84-15.53,4.75-23.44,0.59
			c-5.65-2.97-10.34-7.26-15.29-11.18c-3.4-2.69-6.92-5.16-10.79-7.16c-8.37-4.33-16.55-4.29-24.73,0.53
			c-2.24,1.32-4.37,3.2-7.33,2.57"/>
		<linearGradient id="XMLID_196_" gradientUnits="userSpaceOnUse" x1="-8.3306" y1="-428.4441" x2="154.2804" y2="-428.4441">
			<stop  offset="0" style="stop-color:#ED1971"/>
			<stop  offset="0.052" style="stop-color:#DD2F78"/>
			<stop  offset="0.2089" style="stop-color:#B34C8C"/>
			<stop  offset="0.3427" style="stop-color:#92599C"/>
			<stop  offset="0.4467" style="stop-color:#7C5FA5"/>
			<stop  offset="0.5081" style="stop-color:#7361AA"/>
			<stop  offset="0.5647" style="stop-color:#6D77B8"/>
			<stop  offset="0.6333" style="stop-color:#638DC8"/>
			<stop  offset="0.7036" style="stop-color:#58A1D6"/>
			<stop  offset="0.7747" style="stop-color:#4EB0E1"/>
			<stop  offset="0.8469" style="stop-color:#44BAE9"/>
			<stop  offset="0.921" style="stop-color:#3CC1ED"/>
			<stop  offset="1" style="stop-color:#38C4F0"/>
		</linearGradient>
		<path id="XMLID_7_" class="st15" d="M109.58-376.44c2.47,4.36,4.48,8.83,3.13,14.04c-2.8,0.3-4.89,1.41-6.26,4.15
			c-1.46,2.93-4.29,4.82-7.19,5.97c-8.22,3.24-16.68,6.01-25.63,5.69c-5-0.18-10.34,1.04-14.87-2.75c-1.81-1.52-3.36,0.7-4.72,1.73
			c-7.84,5.94-17.99,7.07-25.7,4.34c-11.69-4.14-22.2-12.08-24.54-26.3c-0.79-4.78-1.41-9.57-1.04-14.41
			c0.63-8.43-1.82-16.51-2.68-24.76c-0.32-3.05-1.77-5.81-3.52-8.36c-0.36-0.52-0.68-1.07-0.93-1.65c-1.87-4.27-4-8.72-0.87-13.13
			c1.81-2.55,9.53-1.34,13.84,2.21c6.87,5.65,9.73,13.38,10.08,22.03c0.55,13.57,6.51,25.6,10.54,38.17
			c0.29,0.92,0.94,1.79,1.61,2.5c1.33,1.42,2.53,3.67,4.79,2.95c2.78-0.88,1.05-3.4,1.16-5.21c0.86-13.7,0.88-27.37,2.7-41.12
			c1.32-9.96,5.12-18.69,7.73-27.94c1.97-7,6.56-13.08,10.99-18.88c3.01-3.95,4.72-7.97,4.47-12.84
			c-0.42-8.16,2.81-14.93,8.01-20.87c2.31-2.64,3.41-5.66,4-8.98c0.87-4.85,3.05-9.13,5.78-13.17c1.76-2.6,3.71-2.67,5.58-0.21
			c1.6,2.12,3.82,4.2,4.35,6.61c1.7,7.73,6.82,9.02,13.46,8.2c7.25,5.4,7.43,5.41,15.48,0.72c0.14-0.08,0.28-0.19,0.43-0.26
			c3.09-1.52,6.51-4.29,9.65-1.59c3.03,2.61,0.67,6.28-0.47,9.29c-1.92,5.05-3.37,10.11-8.01,14.05c-2.41,2.04-2.8,7.46-1.03,10.98
			c1.42,2.82,0.81,4.2-1.45,5.11c-10.31,4.16-18.86,11.04-27.74,17.43c-2.13,1.53-4.33,0.46-6.04-0.76
			c-4.6-3.29-9.42-1.51-13.95-0.49c-4.1,0.92-4.22,7.42-1.11,11.47c6.04,7.85,14.28,6.9,22.28,5.65c8.42-1.32,17.09-1.57,25.17-4.79
			c0.59-0.24,1.25-0.31,1.87-0.46c0.57,5.93,4.82,2.04,7.33,2.88c4.88,1.63,6.35-1.33,7.36-4.84c1.31-4.55,3.54-7.7,8.7-8.3
			c6.45-0.75,10.39,2.63,10.44,9.29c0.02,3.07-0.75,5.93-1.9,8.72c-0.8,2.78-2.96,4.15-5.11,5.51c-1.63,1.03-3.03,2.36-4.3,3.82
			c-3.27,3.76-7.64,5.16-12.75,5.03c-2.93-0.08-4.56,3.45-7.7,2.8"/>
		<linearGradient id="XMLID_197_" gradientUnits="userSpaceOnUse" x1="101.6334" y1="-392.1313" x2="122.7544" y2="-392.1313">
			<stop  offset="0" style="stop-color:#ED1971"/>
			<stop  offset="0.052" style="stop-color:#DD2F78"/>
			<stop  offset="0.2089" style="stop-color:#B34C8C"/>
			<stop  offset="0.3427" style="stop-color:#92599C"/>
			<stop  offset="0.4467" style="stop-color:#7C5FA5"/>
			<stop  offset="0.5081" style="stop-color:#7361AA"/>
			<stop  offset="0.5647" style="stop-color:#6D77B8"/>
			<stop  offset="0.6333" style="stop-color:#638DC8"/>
			<stop  offset="0.7036" style="stop-color:#58A1D6"/>
			<stop  offset="0.7747" style="stop-color:#4EB0E1"/>
			<stop  offset="0.8469" style="stop-color:#44BAE9"/>
			<stop  offset="0.921" style="stop-color:#3CC1ED"/>
			<stop  offset="1" style="stop-color:#38C4F0"/>
		</linearGradient>
		<path id="XMLID_6_" class="st16" d="M109.58-376.44c-7.39-0.15-7.86-1.03-4.27-7.65c2.35-4.34,3.56-8.78,1.81-13.78
			c-1.18-3.38-0.48-6.2,3.67-7.2c3.39-0.81,6.22-4.25,10.22-2.09c-0.68,2.74-2.29,4.72-1.09,8.5c1.03,3.27-2.72,8.15-6.12,11.27
			C110.58-384.43,108.61-381.01,109.58-376.44z"/>
	</g>
</g>
<g id="Layer_3" class="st0">
	<linearGradient id="M1LHg1.tif_1_" gradientUnits="userSpaceOnUse" x1="-429.0809" y1="6.9566" x2="-308.5734" y2="6.9566">
		<stop  offset="0" style="stop-color:#ED1971"/>
		<stop  offset="0.052" style="stop-color:#DD2F78"/>
		<stop  offset="0.2089" style="stop-color:#B34C8C"/>
		<stop  offset="0.3427" style="stop-color:#92599C"/>
		<stop  offset="0.4467" style="stop-color:#7C5FA5"/>
		<stop  offset="0.5081" style="stop-color:#7361AA"/>
		<stop  offset="0.5647" style="stop-color:#6D77B8"/>
		<stop  offset="0.6333" style="stop-color:#638DC8"/>
		<stop  offset="0.7036" style="stop-color:#58A1D6"/>
		<stop  offset="0.7747" style="stop-color:#4EB0E1"/>
		<stop  offset="0.8469" style="stop-color:#44BAE9"/>
		<stop  offset="0.921" style="stop-color:#3CC1ED"/>
		<stop  offset="1" style="stop-color:#38C4F0"/>
	</linearGradient>
	<path id="M1LHg1.tif" class="st17" d="M-394.07-16.48c-0.59,1.62-1.2,3.23-1.77,4.86c-0.64,1.81-0.46,3.61,0.13,5.4
		c0.46,1.38,1.02,2.73,1.36,4.13c0.52,2.12-0.45,3.83-2.34,4.41c-0.82,0.25-1.63,0.13-2.44-0.06c-3.06-0.71-5.79-2.11-8.15-4.15
		c-1.95-1.68-2.99-3.9-3.12-6.49c-0.09-1.82,0.6-3.41,1.72-4.82c1.35-1.71,3.06-2.99,4.85-4.18c1.47-0.98,2.98-1.87,4.68-2.4
		c0.82-0.26,1.65-0.34,2.49-0.25c1.22,0.13,2.23,1.19,2.45,2.57c0.02,0.15,0.08,0.29,0.12,0.43
		C-394.07-16.85-394.07-16.66-394.07-16.48z M-413.94-25.31c-0.31,0.07-0.62,0.14-0.93,0.22c-2.29,0.59-3.93,2.45-2.35,5.19
		c1.66,2.87,5.79,4.05,8.28,3.29c1.28-0.39,2.31-1.1,2.63-2.49c0.23-1.01-0.1-1.95-0.64-2.79c-1.08-1.69-2.7-2.62-4.6-3.1
		c-0.6-0.15-1.23-0.21-1.84-0.31C-413.58-25.31-413.76-25.31-413.94-25.31z M-426.47,31.39 M-426.38,17.2 M-426.45-16.99
		c-1.01,0.73-1.71,1.66-1.63,2.96c0.07,1.21,0.72,2.18,1.62,2.94c2.01,1.68,4.37,2.2,6.93,1.9c1.24-0.14,2.38-0.61,3.27-1.53
		c0.75-0.78,1.23-1.7,0.99-2.82c-0.22-0.99-0.8-1.79-1.54-2.45c-1.6-1.45-3.53-2.02-5.66-2.04
		C-423.89-18.03-425.26-17.85-426.45-16.99z M-422.67,2.05c1.01-0.21,2.05-0.32,3.03-0.64c1.91-0.61,3.45-1.74,4.22-3.67
		c0.17-0.43,0.24-0.97,0.17-1.42c-0.23-1.47-1.24-2.32-2.55-2.82c-2.05-0.79-4.09-0.56-6.1,0.17c-1.44,0.53-2.67,1.37-3.47,2.73
		c-1.03,1.73-0.68,3.36,0.96,4.53c1.11,0.79,2.37,1.02,3.7,0.98C-422.69,1.96-422.68,2-422.67,2.05z M-414.93,8.62
		c2.82,0.88,6.39-0.3,8.17-2.71c0.55-0.74,0.96-1.54,1.05-2.46c0.14-1.4-0.82-2.74-2.33-3.11c-0.84-0.21-1.76-0.28-2.63-0.21
		c-2.39,0.2-4.3,1.32-5.69,3.28c-0.46,0.66-0.83,1.36-0.79,2.21C-417.14,7.01-416.27,8.2-414.93,8.62z M-363.99,10.74
		c-0.04-0.14-0.1-0.29-0.12-0.43c-0.22-1.38-1.23-2.44-2.45-2.57c-0.85-0.09-1.67-0.01-2.49,0.25c-1.7,0.53-3.21,1.43-4.68,2.4
		c-1.79,1.19-3.5,2.47-4.85,4.18c-1.12,1.42-1.81,3-1.72,4.82c0.12,2.59,1.17,4.8,3.12,6.49c2.36,2.04,5.09,3.44,8.15,4.15
		c0.81,0.19,1.62,0.31,2.44,0.06c1.89-0.57,2.87-2.29,2.34-4.41c-0.35-1.4-0.9-2.76-1.36-4.13c-0.6-1.79-0.78-3.59-0.13-5.4
		c0.58-1.62,1.18-3.24,1.77-4.86C-363.99,11.11-363.99,10.93-363.99,10.74z M-383.87,2.46c-0.31,0.07-0.62,0.14-0.93,0.22
		c-2.29,0.59-3.93,2.45-2.35,5.19c1.66,2.87,5.79,4.05,8.28,3.29c1.28-0.39,2.31-1.1,2.63-2.49c0.23-1.01-0.1-1.95-0.64-2.79
		c-1.08-1.69-2.7-2.62-4.6-3.1c-0.6-0.15-1.23-0.21-1.84-0.31C-383.5,2.46-383.69,2.46-383.87,2.46z M-396.31,44.97 M-396.37,10.79
		c-1.01,0.73-1.71,1.66-1.63,2.96c0.07,1.21,0.72,2.18,1.62,2.94c2.01,1.68,4.37,2.2,6.93,1.9c1.24-0.14,2.38-0.61,3.27-1.53
		c0.75-0.78,1.23-1.7,0.99-2.82c-0.22-0.99-0.8-1.79-1.54-2.45c-1.6-1.45-3.53-2.02-5.66-2.04
		C-393.81,9.75-395.19,9.93-396.37,10.79z M-392.6,29.82c1.01-0.21,2.05-0.32,3.03-0.64c1.91-0.61,3.45-1.74,4.22-3.67
		c0.17-0.43,0.24-0.97,0.17-1.42c-0.23-1.47-1.24-2.32-2.55-2.82c-2.05-0.79-4.09-0.56-6.1,0.17c-1.44,0.53-2.67,1.37-3.47,2.73
		c-1.03,1.73-0.68,3.36,0.96,4.53c1.11,0.79,2.37,1.02,3.7,0.98C-392.61,29.73-392.6,29.78-392.6,29.82z M-384.86,36.39
		c2.82,0.88,6.39-0.3,8.17-2.71c0.55-0.74,0.96-1.54,1.05-2.46c0.14-1.4-0.82-2.74-2.33-3.11c-0.84-0.21-1.76-0.28-2.63-0.21
		c-2.39,0.2-4.3,1.32-5.69,3.28c-0.46,0.66-0.83,1.36-0.79,2.21C-387.06,34.79-386.19,35.97-384.86,36.39z M-338.15-21.78
		c-0.04-0.14-0.1-0.29-0.12-0.43c-0.22-1.38-1.23-2.44-2.45-2.57c-0.85-0.09-1.67-0.01-2.49,0.25c-1.7,0.53-3.21,1.43-4.68,2.4
		c-1.79,1.19-3.5,2.47-4.85,4.18c-1.12,1.42-1.81,3-1.72,4.82c0.12,2.59,1.17,4.8,3.12,6.49c2.36,2.04,5.09,3.44,8.15,4.15
		c0.81,0.19,1.62,0.31,2.44,0.06c1.89-0.57,2.87-2.29,2.34-4.41c-0.35-1.4-0.9-2.76-1.36-4.13c-0.6-1.79-0.78-3.59-0.13-5.4
		c0.58-1.62,1.18-3.24,1.77-4.86C-338.15-21.41-338.15-21.59-338.15-21.78z M-358.02-30.06c-0.31,0.07-0.62,0.14-0.93,0.22
		c-2.29,0.59-3.93,2.45-2.35,5.19c1.66,2.87,5.79,4.05,8.28,3.29c1.28-0.39,2.31-1.1,2.63-2.49c0.23-1.01-0.1-1.95-0.64-2.79
		c-1.08-1.69-2.7-2.62-4.6-3.1c-0.6-0.15-1.23-0.21-1.84-0.31C-357.66-30.06-357.84-30.06-358.02-30.06z M-370.46,12.45
		 M-370.53-21.74c-1.01,0.73-1.71,1.66-1.63,2.96c0.07,1.21,0.72,2.18,1.62,2.94c2.01,1.68,4.37,2.2,6.93,1.9
		c1.24-0.14,2.38-0.61,3.27-1.53c0.75-0.78,1.23-1.7,0.99-2.82c-0.22-0.99-0.8-1.79-1.54-2.45c-1.6-1.45-3.53-2.02-5.66-2.04
		C-367.97-22.77-369.34-22.59-370.53-21.74z M-366.75-2.7c1.01-0.21,2.05-0.32,3.03-0.64c1.91-0.61,3.45-1.74,4.22-3.67
		c0.17-0.43,0.24-0.97,0.17-1.42c-0.23-1.47-1.24-2.32-2.55-2.82c-2.05-0.79-4.09-0.56-6.1,0.17c-1.44,0.53-2.67,1.37-3.47,2.73
		c-1.03,1.73-0.68,3.36,0.96,4.53c1.11,0.79,2.37,1.02,3.7,0.98C-366.77-2.79-366.76-2.74-366.75-2.7z M-359.01,3.87
		c2.82,0.88,6.39-0.3,8.17-2.71c0.55-0.74,0.96-1.54,1.05-2.46c0.14-1.4-0.82-2.74-2.33-3.11c-0.84-0.21-1.76-0.28-2.63-0.21
		c-2.39,0.2-4.3,1.32-5.69,3.28c-0.46,0.66-0.83,1.36-0.79,2.21C-361.22,2.26-360.35,3.45-359.01,3.87z M-309.57,7.8
		c-0.04-0.14-0.1-0.29-0.12-0.43c-0.22-1.38-1.23-2.44-2.45-2.57c-0.85-0.09-1.67-0.01-2.49,0.25c-1.7,0.53-3.21,1.43-4.68,2.4
		c-1.79,1.19-3.5,2.47-4.85,4.18c-1.12,1.42-1.81,3-1.72,4.82c0.12,2.59,1.17,4.8,3.12,6.49c2.36,2.04,5.09,3.44,8.15,4.15
		c0.81,0.19,1.62,0.31,2.44,0.06c1.89-0.57,2.87-2.29,2.34-4.41c-0.35-1.4-0.9-2.76-1.36-4.13c-0.6-1.79-0.78-3.59-0.13-5.4
		c0.58-1.62,1.18-3.24,1.77-4.86C-309.57,8.17-309.57,7.99-309.57,7.8z M-329.45-0.48c-0.31,0.07-0.62,0.14-0.93,0.22
		c-2.29,0.59-3.93,2.45-2.35,5.19c1.66,2.87,5.79,4.05,8.28,3.29c1.28-0.39,2.31-1.1,2.63-2.49c0.23-1.01-0.1-1.95-0.64-2.79
		c-1.08-1.69-2.7-2.62-4.6-3.1c-0.6-0.15-1.23-0.21-1.84-0.31C-329.08-0.48-329.27-0.48-329.45-0.48z M-341.89,42.03 M-341.95,7.85
		c-1.01,0.73-1.71,1.66-1.63,2.96c0.07,1.21,0.72,2.18,1.62,2.94c2.01,1.68,4.37,2.2,6.93,1.9c1.24-0.14,2.38-0.61,3.27-1.53
		c0.75-0.78,1.23-1.7,0.99-2.82c-0.22-0.99-0.8-1.79-1.54-2.45c-1.6-1.45-3.53-2.02-5.66-2.04C-339.39,6.81-340.77,6.99-341.95,7.85
		z M-338.17,26.88c1.01-0.21,2.05-0.32,3.03-0.64c1.91-0.61,3.45-1.74,4.22-3.67c0.17-0.43,0.24-0.97,0.17-1.42
		c-0.23-1.47-1.24-2.32-2.55-2.82c-2.05-0.79-4.09-0.56-6.1,0.17c-1.44,0.53-2.67,1.37-3.47,2.73c-1.03,1.73-0.68,3.36,0.96,4.53
		c1.11,0.79,2.37,1.02,3.7,0.98C-338.19,26.79-338.18,26.84-338.17,26.88z M-330.44,33.45c2.82,0.88,6.39-0.3,8.17-2.71
		c0.55-0.74,0.96-1.54,1.05-2.46c0.14-1.4-0.82-2.74-2.33-3.11c-0.84-0.21-1.76-0.28-2.63-0.21c-2.39,0.2-4.3,1.32-5.69,3.28
		c-0.46,0.66-0.83,1.36-0.79,2.21C-332.64,31.85-331.77,33.03-330.44,33.45z"/>
</g>
<g id="Layer_4">
	<linearGradient id="XMLID_198_" gradientUnits="userSpaceOnUse" x1="72.9749" y1="-69.5405" x2="165.7856" y2="-69.5405">
		<stop  offset="0" style="stop-color:#ED1971"/>
		<stop  offset="0.052" style="stop-color:#DD2F78"/>
		<stop  offset="0.2089" style="stop-color:#B34C8C"/>
		<stop  offset="0.3427" style="stop-color:#92599C"/>
		<stop  offset="0.4467" style="stop-color:#7C5FA5"/>
		<stop  offset="0.5081" style="stop-color:#7361AA"/>
		<stop  offset="0.5647" style="stop-color:#6D77B8"/>
		<stop  offset="0.6333" style="stop-color:#638DC8"/>
		<stop  offset="0.7036" style="stop-color:#58A1D6"/>
		<stop  offset="0.7747" style="stop-color:#4EB0E1"/>
		<stop  offset="0.8469" style="stop-color:#44BAE9"/>
		<stop  offset="0.921" style="stop-color:#3CC1ED"/>
		<stop  offset="1" style="stop-color:#38C4F0"/>
	</linearGradient>
	<path id="XMLID_73_" class="st18" d="M122.53-79.43c0,4.38-3.55,7.92-7.92,7.92c-4.38,0-7.92-3.55-7.92-7.92s3.55-7.92,7.92-7.92
		C118.98-87.35,122.53-83.8,122.53-79.43z M104.17-92.01c-1.94,0-3.52,1.58-3.52,3.52c0,1.94,1.58,3.52,3.52,3.52
		c1.94,0,3.52-1.58,3.52-3.52C107.68-90.43,106.11-92.01,104.17-92.01z M113.31-95.53c-1.94,0-3.52,1.58-3.52,3.52
		c0,1.94,1.58,3.52,3.52,3.52c1.94,0,3.52-1.58,3.52-3.52C116.82-93.95,115.25-95.53,113.31-95.53z M100.65-83.28
		c-1.94,0-3.52,1.58-3.52,3.52c0,1.94,1.58,3.52,3.52,3.52c1.94,0,3.52-1.58,3.52-3.52C104.17-81.71,102.59-83.28,100.65-83.28z
		 M104.17-75.55c-1.94,0-3.52,1.58-3.52,3.52s1.58,3.52,3.52,3.52c1.94,0,3.52-1.58,3.52-3.52S106.11-75.55,104.17-75.55z
		 M86.37-65.42c-3.93,1.93-5.55,6.67-3.63,10.6c1.93,3.93,6.67,5.55,10.6,3.63s5.55-6.67,3.63-10.6
		C95.05-65.72,90.3-67.35,86.37-65.42z M74.94-65.01c-1.74,0.86-2.47,2.96-1.61,4.71c0.86,1.74,2.96,2.47,4.71,1.61
		c1.74-0.86,2.47-2.96,1.61-4.71C78.8-65.14,76.69-65.86,74.94-65.01z M81.6-72.19c-1.74,0.86-2.47,2.96-1.61,4.71
		c0.86,1.74,2.96,2.47,4.71,1.61s2.47-2.96,1.61-4.71C85.46-72.32,83.35-73.04,81.6-72.19z M75.63-55.62
		c-1.74,0.86-2.47,2.96-1.61,4.71c0.86,1.74,2.96,2.47,4.71,1.61s2.47-2.96,1.61-4.71C79.48-55.76,77.37-56.48,75.63-55.62z
		 M82.19-50.23c-1.74,0.86-2.47,2.96-1.61,4.71c0.86,1.74,2.96,2.47,4.71,1.61c1.74-0.86,2.47-2.96,1.61-4.71
		C86.04-50.37,83.93-51.09,82.19-50.23z M131.37-68.43c-3.93,1.93-5.55,6.67-3.63,10.6c1.93,3.93,6.67,5.55,10.6,3.63
		c3.93-1.93,5.55-6.67,3.63-10.6C140.05-68.73,135.3-70.35,131.37-68.43z M119.94-68.01c-1.74,0.86-2.47,2.96-1.61,4.71
		s2.96,2.47,4.71,1.61c1.74-0.86,2.47-2.96,1.61-4.71S121.69-68.87,119.94-68.01z M126.6-75.19c-1.74,0.86-2.47,2.96-1.61,4.71
		c0.86,1.74,2.96,2.47,4.71,1.61c1.74-0.86,2.47-2.96,1.61-4.71S128.35-76.05,126.6-75.19z M120.63-58.63
		c-1.74,0.86-2.47,2.96-1.61,4.71c0.86,1.74,2.96,2.47,4.71,1.61c1.74-0.86,2.47-2.96,1.61-4.71
		C124.48-58.76,122.37-59.48,120.63-58.63z M127.19-53.24c-1.74,0.86-2.47,2.96-1.61,4.71c0.86,1.74,2.96,2.47,4.71,1.61
		c1.74-0.86,2.47-2.96,1.61-4.71C131.04-53.37,128.93-54.09,127.19-53.24z M154.37-86.8c-3.93,1.93-5.55,6.67-3.63,10.6
		c1.93,3.93,6.67,5.55,10.6,3.63c3.93-1.93,5.55-6.67,3.63-10.6C163.05-87.1,158.3-88.72,154.37-86.8z M142.94-86.38
		c-1.74,0.86-2.47,2.96-1.61,4.71c0.86,1.74,2.96,2.47,4.71,1.61s2.47-2.96,1.61-4.71S144.69-87.24,142.94-86.38z M149.6-93.57
		c-1.74,0.86-2.47,2.96-1.61,4.71c0.86,1.74,2.96,2.47,4.71,1.61c1.74-0.86,2.47-2.96,1.61-4.71S151.35-94.42,149.6-93.57z
		 M143.63-77c-1.74,0.86-2.47,2.96-1.61,4.71c0.86,1.74,2.96,2.47,4.71,1.61s2.47-2.96,1.61-4.71S145.37-77.85,143.63-77z
		 M150.19-71.61c-1.74,0.86-2.47,2.96-1.61,4.71c0.86,1.74,2.96,2.47,4.71,1.61c1.74-0.86,2.47-2.96,1.61-4.71
		S151.93-72.46,150.19-71.61z"/>
	<g id="XMLID_19_">
		<circle id="XMLID_18_" class="st19" cx="16.17" cy="17.29" r="7.92"/>
		<circle id="XMLID_17_" class="st19" cx="14.94" cy="3.52" r="3.52"/>
		<circle id="XMLID_16_" class="st19" cx="23.96" cy="7.33" r="3.52"/>
		<circle id="XMLID_15_" class="st19" cx="6.35" cy="7.36" r="3.52"/>
		<circle id="XMLID_14_" class="st19" cx="3.52" cy="15.36" r="3.52"/>
	</g>
</g>
</svg>
